<?xml version="1.0" encoding="UTF-8"?>
<svg width="46px" height="52px" viewBox="0 0 46 52" version="1.1" xmlns="http://www.w3.org/2000/svg" xmlns:xlink="http://www.w3.org/1999/xlink">
    <!-- Generator: Sketch 51.3 (57544) - http://www.bohemiancoding.com/sketch -->
    <title>Group 12</title>
    <desc>Created with Sketch.</desc>
    <defs></defs>
    <g id="Landing-" stroke="none" stroke-width="1" fill="none" fill-rule="evenodd">
        <g id="103_Dashboard" transform="translate(-25.000000, -478.000000)">
            <g id="Group-6" transform="translate(20.000000, 478.000000)">
                <g id="Group-12" transform="translate(5.000000, 0.000000)">
                    <path d="M23.5,47 C22.9559585,47 22.5098446,47.4043393 22.5098446,47.8974359 L22.5098446,50.2051282 L13.9901554,50.2051282 C13.446114,50.2051282 13,50.6094675 13,51.1025641 C13,51.5956607 13.446114,52 13.9901554,52 L33.0098446,52 C33.553886,52 34,51.5956607 34,51.1025641 C34,50.6094675 33.553886,50.2051282 33.0098446,50.2051282 L24.4901554,50.2051282 L24.4901554,47.8974359 C24.4901554,47.3944773 24.0440415,47 23.5,47 Z" id="Path" fill="#F47D00"></path>
                    <path d="M2.35980323,44 L43.6401968,44 C44.944015,44 46,42.9482927 46,41.6497561 L46,13.3502439 C46,12.0517073 44.944015,11 43.6401968,11 L32.0890138,11 C31.550246,11 31.1084563,11.44 31.1084563,11.9765854 C31.1084563,12.5131707 31.550246,12.9531707 32.0890138,12.9531707 L43.6401968,12.9531707 C43.8664793,12.9531707 44.0496603,13.1356098 44.0496603,13.3609756 L44.0496603,41.6712195 C44.0496603,41.8965854 43.8664793,42.0790244 43.6401968,42.0790244 L2.35980323,42.0790244 C2.13352073,42.0790244 1.95033966,41.8965854 1.95033966,41.6712195 L1.95033966,36.96 L40.8924807,36.96 C41.4312485,36.96 41.8730382,36.52 41.8730382,35.9834146 C41.8730382,35.4468293 41.4312485,35.0068293 40.8924807,35.0068293 L35.9681424,35.0068293 C35.5586788,32.1843902 33.1126728,30.0058537 30.1710002,30.0058537 C29.6322324,30.0058537 29.1904427,30.4458537 29.1904427,30.982439 C29.1904427,31.5190244 29.6322324,31.9590244 30.1710002,31.9590244 C32.035137,31.9590244 33.5975638,33.2682927 33.9854767,35.0068293 L29.5244788,35.0068293 C29.1473413,32.0126829 26.755212,29.6302439 23.7488873,29.2439024 L23.7488873,22.4721951 C23.7488873,21.9356098 23.3070977,21.4956098 22.7683298,21.4956098 C22.229562,21.4956098 21.7877723,21.9356098 21.7877723,22.4721951 L21.7877723,29.2868293 C18.8999766,29.7697561 16.6371516,32.0985366 16.2600141,35.0068293 L11.7774654,35.0068293 C12.1653783,33.2682927 13.7278051,31.9590244 15.5919419,31.9590244 C16.1307098,31.9590244 16.5724994,31.5190244 16.5724994,30.982439 C16.5724994,30.4458537 16.1307098,30.0058537 15.5919419,30.0058537 C12.6502694,30.0058537 10.2042633,32.1843902 9.79479972,35.0068293 L1.45467323,35.0068293 C1.31459358,34.9317073 1.15296322,34.8780488 0.980557508,34.8780488 C0.441789646,34.8780488 0,35.3180488 0,35.8546341 L0,41.6604878 C0.0107753572,42.9482927 1.06676037,44 2.35980323,44 Z M22.9084095,31.1219512 C25.2251113,31.1219512 27.1646756,32.7960976 27.5633638,34.9960976 L18.2642305,34.9960976 C18.6521434,32.7960976 20.5809323,31.1219512 22.9084095,31.1219512 Z" id="Shape" fill="#2246A8" fill-rule="nonzero"></path>
                    <path d="M0.984848485,33 C1.52597403,33 1.96969697,32.5580598 1.96969697,32.0191083 L1.96969697,13.3713866 C1.96969697,13.1450269 2.15367965,12.9617834 2.38095238,12.9617834 L14.0151515,12.9617834 C14.5562771,12.9617834 15,12.5198432 15,11.9808917 C15,11.4419402 14.5562771,11 14.0151515,11 L2.37012987,11 C1.06060606,11 0,12.0563449 0,13.3606075 L0,32.0083293 C0.0108225108,32.5688388 0.443722944,33 0.984848485,33 Z" id="Path" fill="#F47D00"></path>
                    <circle id="Oval" fill="#F47D00" cx="23" cy="40" r="1"></circle>
                    <path d="M15,24.7407269 C15,25.2840015 15.4386407,25.7294867 15.9735683,25.7294867 L17.9634991,25.7294867 L17.9634991,28.0112402 C17.9634991,28.5545148 18.4021397,29 18.9370673,29 C19.471995,29 19.9106356,28.5545148 19.9106356,28.0112402 L19.9106356,25.7294867 L20.0390183,25.7294867 C20.5739459,25.7294867 21.0125865,25.2840015 21.0125865,24.7407269 C21.0125865,24.1974522 20.5739459,23.751967 20.0390183,23.751967 L16.936438,23.751967 L16.936438,22.6545523 C16.936438,22.2851255 17.0434235,21.9265643 17.2573946,21.6223305 L19.0119572,19.0689397 C19.4292008,18.4604721 19.6538704,17.7433496 19.6538704,16.9936306 L19.6538704,8.44248782 C19.6538704,7.63844136 19.9427313,6.85612589 20.4562618,6.2476583 L23.6123348,2.49906332 L26.7791064,6.23679281 C27.3033354,6.85612589 27.5921963,7.63844136 27.5921963,8.44248782 L27.5921963,17.047958 C27.5921963,17.7324841 27.7847703,18.4061446 28.1485211,18.9928812 L29.7853996,21.611465 C29.967275,21.9048333 30.063562,22.2307981 30.063562,22.5784938 L30.063562,23.7411015 L27.12146,23.7411015 C26.5865324,23.7411015 26.1478918,24.1865867 26.1478918,24.7298614 C26.1478918,25.2405395 26.5223411,25.6425628 27.003776,25.7077557 L27.003776,28.0003747 C27.003776,28.5436493 27.4424166,28.9891345 27.9773442,28.9891345 C28.5122719,28.9891345 28.9509125,28.5436493 28.9509125,28.0003747 L28.9509125,25.7186212 L31.0264317,25.7186212 C31.5613593,25.7186212 32,25.273136 32,24.7298614 L32,22.5784938 C32,21.8613713 31.7967275,21.1659798 31.4222782,20.5575122 L29.7853996,17.9389284 C29.6142228,17.6672911 29.5286344,17.3630573 29.5286344,17.047958 L29.5286344,8.45335332 C29.5286344,7.17122518 29.0685966,5.93255901 28.2448081,4.95466467 L24.3291378,0.336830274 C24.1472624,0.11952042 23.8797986,0 23.5909377,0 C23.3127753,0 23.034613,0.130385912 22.8527376,0.347695766 L18.969163,4.96553016 C18.156073,5.93255901 17.7067338,7.17122518 17.7067338,8.44248782 L17.7067338,17.0044961 C17.7067338,17.3413263 17.6104468,17.6781566 17.4178729,17.9497939 L15.6633103,20.5031847 C15.2246696,21.1442488 15,21.8831023 15,22.6654178 L15,24.7407269 Z" id="Path" fill="#2246A8"></path>
                </g>
            </g>
        </g>
    </g>
</svg>